<svg xmlns="http://www.w3.org/2000/svg" width="50" height="50" version="1.1" viewBox="0.000003814697265625 -0.0006857814150862396 160 157.38336181640625" class="mt-n2">
				<path d="M139.539078,0.229226287 L9.01110668,82.3993233 C2.8630435,86.1175452 -0.141748171,90.2806109 0.00513414328,94.8927169 L0.00513414328,107.3987 C0.152016542,112.015003 3.22815107,116.106726 9.23772518,119.678065 L73.8365016,156.965201 C74.2200744,157.189721 74.6481315,157.32779 75.0908769,157.369337 C75.5332026,157.410884 75.9793053,157.355068 76.3981299,157.205668 C76.8165348,157.056687 77.1975896,156.817899 77.5144358,156.505669 C77.8308624,156.193858 78.0751067,155.816581 78.2303824,155.399854 L92.7339659,120.349528 L61.9726038,102.933477 C61.0858541,102.473525 60.340531,101.781919 59.8155315,100.93168 C59.4223065,100.292952 59.1604362,99.582041 59.0450286,98.8409146 C58.9292014,98.0997882 58.9627745,97.3431342 59.1428103,96.6150174 C59.3228461,95.8864809 59.6459873,95.2015895 60.0937687,94.5997915 C60.54155,93.9979935 61.1047389,93.4910395 61.750182,93.1091454 L118.22435,58.4994656 L141.511498,1.79457086 C141.604664,1.52898238 141.613057,1.24101743 141.535839,0.970409765 C141.45862,0.699806302 141.298729,0.459897054 141.079244,0.283782591 C140.861019,0.109836531 140.592854,0.0106304247 140.314197,0 C140.035121,-0.00901647533 139.76066,0.071062946 139.530685,0.229226287 L139.539078,0.229226287 Z" fill="#5B7f95"></path>
				<circle cx="130" cy="100" r="30" fill="#F19309"></circle>
			</svg>